# xmcd
#
# Track frame offsets: 
#        150
#        5991
#        18367
#        30526
#        49357
#        59506
#        71137
#        81783
#        92895
#        103070
#        115364
#        127615
#        140728
#        151830
#        164151
#        175482
#        186053
#        198371
#        209417
#        220196
#
# Disc length: 3117 seconds
#
# Revision: 1
# Processed by: cddbd v1.5.2PL0 Copyright (c) Steve Scherf et al.
# Submitted via: ExactAudioCopyFreeDBPlugin 1.0
#
DISCID=2b0c2b14
DTITLE=Blue Haley - Rock'n'Roll At Its Best From Berlin!
DYEAR=2005
DGENRE=Rock and Roll
TTITLE0=Intro
TTITLE1=Battle Of New Orleans
TTITLE2=Crazy Little Thing Called Love
TTITLE3=Just A Gigolo
TTITLE4=Rock Around The Clock
TTITLE5=Land Of 1000 Dances
TTITLE6=Heartbreak Hotel
TTITLE7=Rip It Up
TTITLE8=Let's Have A Party
TTITLE9=Jaihouse Rock
TTITLE10=The Lion Sleeps Tonight
TTITLE11=Pretty Woman
TTITLE12=Don't Knock The Rock
TTITLE13=Mambo Rock
TTITLE14=Shake Rettle And Roll
TTITLE15=Splish Splash
TTITLE16=Reet Petite
TTITLE17=Let's Twist Again
TTITLE18=R-O-C-K
TTITLE19=See You Later Alligator
EXTD=
EXTT0=
EXTT1=
EXTT2=
EXTT3=
EXTT4=
EXTT5=
EXTT6=
EXTT7=
EXTT8=
EXTT9=
EXTT10=
EXTT11=
EXTT12=
EXTT13=
EXTT14=
EXTT15=
EXTT16=
EXTT17=
EXTT18=
EXTT19=
PLAYORDER=
